<svg xmlns="http://www.w3.org/2000/svg" width="27.536" height="17.948" viewBox="0 0 27.536 17.948">
  <g id="next" transform="translate(0 -55.887)">
    <path id="Path_1" data-name="Path 1" d="M26.677,63.063l-7.934-6.638a2.1,2.1,0,0,0-1.359-.539A1.836,1.836,0,0,0,15.6,57.893V64.31H.551a.551.551,0,1,0,0,1.1H15.6v6.416a1.837,1.837,0,0,0,1.781,2.006,2.105,2.105,0,0,0,1.359-.539l7.934-6.639a2.309,2.309,0,0,0,0-3.594Zm-.707,2.748-7.934,6.64a1.026,1.026,0,0,1-.652.282c-.313,0-.679-.237-.679-.9V57.893c0-.666.366-.9.679-.9a1.025,1.025,0,0,1,.652.282l7.934,6.638a1.207,1.207,0,0,1,0,1.9Z" fill="#fff"/>
  </g>
</svg>
